Coordinates
version=1
nRows=19
nColumns=24
inDegrees=yes

Units are S.I. units (second, meters, Newtons, ...)
Angles are in degrees.

endheader
time	pelvis_tilt	pelvis_list	pelvis_rotation	pelvis_tx	pelvis_ty	pelvis_tz	hip_flexion_r	hip_adduction_r	hip_rotation_r	knee_angle_r	ankle_angle_r	subtalar_angle_r	mtp_angle_r	hip_flexion_l	hip_adduction_l	hip_rotation_l	knee_angle_l	ankle_angle_l	subtalar_angle_l	mtp_angle_l	lumbar_extension	lumbar_bending	lumbar_rotation
      4.85000000	    -13.62874911	     11.20059456	     -8.83017117	      2.93220565	     -0.01450062	     -0.45874221	     20.64767012	    -17.71236954	     -2.04405304	    -57.27643021	    -23.66070348	     14.56743030	     42.15364359	     23.15210929	     10.74053817	    -17.10474273	     -4.65355342	    -12.89416191	      3.89372513	      9.66706199	     14.90672750	    -16.64722936	      5.46930904
      4.85500000	    -13.50683500	     11.11451226	     -8.73960449	      2.93756876	     -0.01382948	     -0.45955381	     21.19591210	    -17.67514260	     -1.86223931	    -58.13347457	    -23.23992864	     14.46485920	     42.38160051	     22.55205557	     10.86649887	    -16.94219304	     -4.42073662	    -12.63467740	      4.04670306	      9.76039453	     14.77370241	    -16.55984547	      5.17319404
      4.86000000	    -13.40562834	     10.99533159	     -8.64496390	      2.94280242	     -0.01313728	     -0.46031729	     21.75930112	    -17.57703199	     -1.67431207	    -58.93584515	    -22.84991659	     14.44637887	     42.61423871	     21.98188145	     10.94328502	    -16.73973368	     -4.20265793	    -12.42077611	      4.18304854	      9.83700720	     14.64139466	    -16.44514748	      4.86422611
      4.86500000	    -13.17108529	     10.82856481	     -8.54008963	      2.94811787	     -0.01226661	     -0.46116413	     22.10408261	    -17.46963580	     -1.55597964	    -59.54492751	    -22.65930267	     14.34161226	     44.00047263	     21.25843646	     11.00723679	    -16.56831459	     -4.00549989	    -12.08277260	      4.47966513	      9.82616690	     14.35819118	    -16.29881430	      4.51576251
      4.87000000	    -13.11925272	     10.68774909	     -8.36823496	      2.95336284	     -0.01165234	     -0.46205939	     22.66175819	    -17.36315592	     -1.44020941	    -60.21672917	    -22.29864620	     14.57941527	     44.42748713	     20.75401793	     11.07626974	    -16.29721120	     -3.82941898	    -11.86674820	      4.56927525	      9.89522960	     14.26751575	    -16.16443923	      4.14464252
      4.87500000	    -12.97604140	     10.49670939	     -8.21119030	      2.95863406	     -0.01089443	     -0.46294868	     23.06983559	    -17.21131022	     -1.37310290	    -60.74207040	    -22.04964437	     14.60936640	     45.62890984	     20.13383266	     11.11042911	    -15.94906466	     -3.65176109	    -11.60967215	      4.58903302	      9.80021988	     14.07689416	    -15.98707833	      3.77540072
      4.88000000	    -12.91578916	     10.29879532	     -8.05082895	      2.96384448	     -0.01027388	     -0.46381848	     23.57944995	    -17.01724851	     -1.26384044	    -61.29603398	    -21.66782635	     14.97124653	     45.95802446	     19.63662837	     11.10770154	    -15.70550700	     -3.52206659	    -11.34945285	      4.66913408	      9.87870046	     13.97783877	    -15.78551942	      3.42757309
      4.88500000	    -12.74863808	     10.09427279	     -7.82701288	      2.96901135	     -0.00952365	     -0.46478882	     23.92106863	    -16.87380590	     -1.26080424	    -61.73065233	    -21.38314026	     15.23432592	     46.95017782	     19.01953205	     11.14214175	    -15.28973383	     -3.40052900	    -11.10389540	      4.65615970	      9.74310262	     13.72898542	    -15.61658152	      2.98461604
      4.89000000	    -12.67961097	      9.87476750	     -7.63398383	      2.97421231	     -0.00888962	     -0.46569449	     24.37258649	    -16.65954169	     -1.19156507	    -62.14604600	    -21.03788980	     15.66512801	     47.47993315	     18.51965232	     11.12118404	    -14.99103259	     -3.29414122	    -10.85664277	      4.69829227	      9.73817747	     13.61637882	    -15.40164318	      2.58776160
      4.89500000	    -12.60020234	      9.63381245	     -7.44471327	      2.97933881	     -0.00825934	     -0.46655744	     24.80660287	    -16.41130824	     -1.12795515	    -62.52147177	    -20.70583184	     16.11730461	     47.86760269	     18.02300715	     11.06447912	    -14.65371777	     -3.21683496	    -10.59399189	      4.73423228	      9.76220016	     13.48278936	    -15.16751295	      2.24421520
      4.90000000	    -12.43343404	      9.38742022	     -7.21408659	      2.98455763	     -0.00754473	     -0.46751798	     25.08849174	    -16.20791887	     -1.16730915	    -62.79341974	    -20.37988510	     16.41331883	     48.66759960	     17.41282040	     11.04152253	    -14.17999661	     -3.13071732	    -10.32160488	      4.61698961	      9.53824461	     13.25980930	    -14.94589026	      1.83622565
      4.90500000	    -12.37632318	      9.15732819	     -7.00631091	      2.98963610	     -0.00700933	     -0.46841424	     25.53263644	    -15.97121615	     -1.12731427	    -63.08951011	    -20.02291681	     16.88144845	     48.94208209	     16.97224425	     10.98576463	    -13.89507715	     -3.09796187	    -10.05470158	      4.66947258	      9.59415508	     13.15338786	    -14.71854254	      1.48093645
      4.91000000	    -12.23437918	      8.91365984	     -6.74256363	      2.99477654	     -0.00639229	     -0.46939830	     25.82695744	    -15.77307741	     -1.19734794	    -63.30457717	    -19.65510276	     17.23263874	     49.34003685	     16.42482491	     10.94982453	    -13.46815472	     -3.06495095	     -9.77675162	      4.62459493	      9.48237792	     12.94775473	    -14.50105760	      1.06755676
      4.91500000	    -12.12689415	      8.65601681	     -6.51817729	      2.99988828	     -0.00580521	     -0.47032489	     26.16511930	    -15.52007490	     -1.21632548	    -63.47220017	    -19.31894802	     17.55525097	     49.65630986	     15.92242472	     10.87260067	    -13.08036130	     -3.04102308	     -9.48863402	      4.58245043	      9.35490974	     12.79312738	    -14.24947843	      0.70246913
      4.92000000	    -12.07236982	      8.41827260	     -6.30872157	      3.00497721	     -0.00533904	     -0.47120670	     26.57422094	    -15.26948772	     -1.21685372	    -63.62629060	    -18.94401502	     17.86800235	     49.79420736	     15.50190471	     10.79080981	    -12.80202707	     -3.03969654	     -9.21032761	      4.61561377	      9.41025893	     12.71327569	    -14.00720337	      0.40384496
      4.92500000	    -11.92830181	      8.16445380	     -6.01907346	      3.01000677	     -0.00476461	     -0.47220031	     26.83770828	    -15.05684102	     -1.32368900	    -63.71534579	    -18.58835869	     18.08109270	     49.88982355	     14.98267150	     10.72446611	    -12.35209320	     -3.05582435	     -8.92245555	      4.59735699	      9.28380937	     12.49696589	    -13.78195963	     -0.02073048
      4.93000000	    -11.84298547	      7.91075941	     -5.77544044	      3.01503285	     -0.00427261	     -0.47314068	     27.17628399	    -14.80374043	     -1.37384953	    -63.76519847	    -18.22950351	     18.25897426	     49.91605170	     14.54037319	     10.63025233	    -12.00541842	     -3.08069646	     -8.63499009	      4.59541618	      9.22173937	     12.36902348	    -13.53079718	     -0.38172340
      4.93500000	    -11.73844060	      7.65927662	     -5.51737809	      3.02004479	     -0.00378551	     -0.47408510	     27.47898777	    -14.56192140	     -1.45563308	    -63.77458510	    -17.85443076	     18.33985735	     49.83825205	     14.08044686	     10.53693610	    -11.61376327	     -3.11510421	     -8.33310969	      4.58823189	      9.11604264	     12.21938552	    -13.28626747	     -0.72484282
      4.94000000	    -11.67549569	      7.40388709	     -5.29219162	      3.02500989	     -0.00335470	     -0.47497608	     27.83486861	    -14.27947346	     -1.48639759	    -63.73888286	    -17.50099416	     18.37395375	     49.74616876	     13.67764755	     10.41458402	    -11.26768654	     -3.15677783	     -8.04186690	      4.60432395	      9.09207686	     12.12350701	    -13.02327548	     -1.01004253
